<mxfile host="app.diagrams.net" modified="2024-03-13T07:39:41.440Z" agent="Mozilla/5.0 (X11; Linux x86_64; rv:122.0) Gecko/20100101 Firefox/122.0" etag="qHIianCc7u_M4J3qsU5C" version="24.0.5" type="device">
  <diagram name="Page-1" id="0X3vbdrHx6FdADkMzNYM">
    <mxGraphModel dx="1474" dy="1438" grid="1" gridSize="10" guides="1" tooltips="1" connect="1" arrows="1" fold="1" page="1" pageScale="1" pageWidth="850" pageHeight="1100" math="0" shadow="0">
      <root>
        <mxCell id="0" />
        <mxCell id="1" parent="0" />
        <mxCell id="gaYdnUDOfFCHFR6QDy4r-1" value="" style="rounded=0;whiteSpace=wrap;html=1;" parent="1" vertex="1">
          <mxGeometry x="250" y="270" width="120" height="60" as="geometry" />
        </mxCell>
        <mxCell id="gaYdnUDOfFCHFR6QDy4r-2" value="&lt;div&gt;p0: FP/Integer&lt;/div&gt;&lt;div&gt;16 lanes reales&lt;br&gt;&lt;/div&gt;&lt;div&gt;= 4 quads&lt;br&gt;&lt;/div&gt;" style="text;html=1;align=center;verticalAlign=middle;whiteSpace=wrap;rounded=0;" parent="1" vertex="1">
          <mxGeometry x="260" y="285" width="100" height="30" as="geometry" />
        </mxCell>
        <mxCell id="gaYdnUDOfFCHFR6QDy4r-3" value="" style="rounded=0;whiteSpace=wrap;html=1;" parent="1" vertex="1">
          <mxGeometry x="60" y="270" width="120" height="60" as="geometry" />
        </mxCell>
        <mxCell id="gaYdnUDOfFCHFR6QDy4r-110" style="edgeStyle=orthogonalEdgeStyle;rounded=0;orthogonalLoop=1;jettySize=auto;html=1;" parent="1" source="gaYdnUDOfFCHFR6QDy4r-4" edge="1">
          <mxGeometry relative="1" as="geometry">
            <mxPoint x="-80" y="300" as="targetPoint" />
          </mxGeometry>
        </mxCell>
        <mxCell id="gaYdnUDOfFCHFR6QDy4r-4" value="&lt;div&gt;p1: Mem coalesce&lt;br&gt;&lt;/div&gt;&lt;div&gt;16 lanes -&amp;gt; 1 burst&lt;br&gt;&lt;/div&gt;" style="text;html=1;align=center;verticalAlign=middle;whiteSpace=wrap;rounded=0;" parent="1" vertex="1">
          <mxGeometry x="60" y="285" width="120" height="30" as="geometry" />
        </mxCell>
        <mxCell id="gaYdnUDOfFCHFR6QDy4r-63" style="edgeStyle=orthogonalEdgeStyle;rounded=0;orthogonalLoop=1;jettySize=auto;html=1;entryX=0.5;entryY=0;entryDx=0;entryDy=0;" parent="1" source="gaYdnUDOfFCHFR6QDy4r-5" target="gaYdnUDOfFCHFR6QDy4r-54" edge="1">
          <mxGeometry relative="1" as="geometry" />
        </mxCell>
        <mxCell id="gaYdnUDOfFCHFR6QDy4r-140" style="edgeStyle=orthogonalEdgeStyle;rounded=0;orthogonalLoop=1;jettySize=auto;html=1;" parent="1" target="gaYdnUDOfFCHFR6QDy4r-5" edge="1">
          <mxGeometry relative="1" as="geometry">
            <mxPoint x="310.0000000000002" y="-160" as="sourcePoint" />
          </mxGeometry>
        </mxCell>
        <mxCell id="gaYdnUDOfFCHFR6QDy4r-5" value="" style="rounded=0;whiteSpace=wrap;html=1;" parent="1" vertex="1">
          <mxGeometry x="250" y="-79" width="120" height="60" as="geometry" />
        </mxCell>
        <mxCell id="gaYdnUDOfFCHFR6QDy4r-6" value="Fetch" style="text;html=1;align=center;verticalAlign=middle;whiteSpace=wrap;rounded=0;" parent="1" vertex="1">
          <mxGeometry x="275" y="-65" width="70" height="30" as="geometry" />
        </mxCell>
        <mxCell id="gaYdnUDOfFCHFR6QDy4r-7" value="" style="whiteSpace=wrap;html=1;" parent="1" vertex="1">
          <mxGeometry x="400" y="270" width="120" height="60" as="geometry" />
        </mxCell>
        <mxCell id="gaYdnUDOfFCHFR6QDy4r-8" value="&lt;div&gt;p2: SFU &amp;amp; 1/x&lt;br&gt;&lt;/div&gt;&lt;div&gt;Lanes TBD&lt;/div&gt;&lt;div&gt;Posible: FSM escalar&lt;br&gt;&lt;/div&gt;" style="text;html=1;align=center;verticalAlign=middle;resizable=0;points=[];autosize=1;strokeColor=none;fillColor=none;" parent="1" vertex="1">
          <mxGeometry x="390" y="270" width="140" height="60" as="geometry" />
        </mxCell>
        <mxCell id="gaYdnUDOfFCHFR6QDy4r-19" style="edgeStyle=orthogonalEdgeStyle;rounded=0;orthogonalLoop=1;jettySize=auto;html=1;entryX=0.5;entryY=0;entryDx=0;entryDy=0;" parent="1" source="gaYdnUDOfFCHFR6QDy4r-9" target="gaYdnUDOfFCHFR6QDy4r-1" edge="1">
          <mxGeometry relative="1" as="geometry" />
        </mxCell>
        <mxCell id="gaYdnUDOfFCHFR6QDy4r-20" style="edgeStyle=orthogonalEdgeStyle;rounded=0;orthogonalLoop=1;jettySize=auto;html=1;entryX=0.5;entryY=0;entryDx=0;entryDy=0;" parent="1" source="gaYdnUDOfFCHFR6QDy4r-9" target="gaYdnUDOfFCHFR6QDy4r-7" edge="1">
          <mxGeometry relative="1" as="geometry" />
        </mxCell>
        <mxCell id="gaYdnUDOfFCHFR6QDy4r-9" value="" style="rounded=0;whiteSpace=wrap;html=1;" parent="1" vertex="1">
          <mxGeometry x="250" y="170" width="120" height="60" as="geometry" />
        </mxCell>
        <mxCell id="gaYdnUDOfFCHFR6QDy4r-10" value="Issue/dispatch" style="text;html=1;align=center;verticalAlign=middle;resizable=0;points=[];autosize=1;strokeColor=none;fillColor=none;" parent="1" vertex="1">
          <mxGeometry x="260" y="185" width="100" height="30" as="geometry" />
        </mxCell>
        <mxCell id="gaYdnUDOfFCHFR6QDy4r-18" style="edgeStyle=orthogonalEdgeStyle;rounded=0;orthogonalLoop=1;jettySize=auto;html=1;entryX=0.533;entryY=-0.02;entryDx=0;entryDy=0;entryPerimeter=0;" parent="1" source="gaYdnUDOfFCHFR6QDy4r-9" target="gaYdnUDOfFCHFR6QDy4r-3" edge="1">
          <mxGeometry relative="1" as="geometry" />
        </mxCell>
        <mxCell id="gaYdnUDOfFCHFR6QDy4r-22" value="&lt;div&gt;ready/valid&lt;/div&gt;" style="text;html=1;align=center;verticalAlign=middle;whiteSpace=wrap;rounded=0;" parent="1" vertex="1">
          <mxGeometry x="395" y="190" width="60" height="30" as="geometry" />
        </mxCell>
        <mxCell id="gaYdnUDOfFCHFR6QDy4r-23" value="&lt;div&gt;ready/valid&lt;/div&gt;" style="text;html=1;align=center;verticalAlign=middle;whiteSpace=wrap;rounded=0;" parent="1" vertex="1">
          <mxGeometry x="130" y="190" width="60" height="30" as="geometry" />
        </mxCell>
        <mxCell id="gaYdnUDOfFCHFR6QDy4r-30" style="edgeStyle=orthogonalEdgeStyle;rounded=0;orthogonalLoop=1;jettySize=auto;html=1;entryX=1;entryY=0.5;entryDx=0;entryDy=0;" parent="1" source="gaYdnUDOfFCHFR6QDy4r-25" target="gaYdnUDOfFCHFR6QDy4r-5" edge="1">
          <mxGeometry relative="1" as="geometry" />
        </mxCell>
        <mxCell id="gaYdnUDOfFCHFR6QDy4r-25" value="" style="shape=process;whiteSpace=wrap;html=1;backgroundOutline=1;" parent="1" vertex="1">
          <mxGeometry x="440" y="-80" width="120" height="60" as="geometry" />
        </mxCell>
        <mxCell id="gaYdnUDOfFCHFR6QDy4r-28" value="&lt;b&gt;valid con abort&lt;br&gt;&lt;/b&gt;" style="text;html=1;align=center;verticalAlign=middle;whiteSpace=wrap;rounded=0;" parent="1" vertex="1">
          <mxGeometry x="310" y="230" width="90" height="30" as="geometry" />
        </mxCell>
        <mxCell id="gaYdnUDOfFCHFR6QDy4r-29" value="valid group, insn, 2x 32bit" style="text;html=1;align=center;verticalAlign=middle;whiteSpace=wrap;rounded=0;" parent="1" vertex="1">
          <mxGeometry x="320" y="120" width="140" height="30" as="geometry" />
        </mxCell>
        <mxCell id="gaYdnUDOfFCHFR6QDy4r-31" value="Runnable group SCFIFO" style="text;html=1;align=center;verticalAlign=middle;whiteSpace=wrap;rounded=0;" parent="1" vertex="1">
          <mxGeometry x="455" y="-65" width="90" height="30" as="geometry" />
        </mxCell>
        <mxCell id="gaYdnUDOfFCHFR6QDy4r-52" style="edgeStyle=orthogonalEdgeStyle;rounded=0;orthogonalLoop=1;jettySize=auto;html=1;entryX=1;entryY=0.5;entryDx=0;entryDy=0;" parent="1" source="gaYdnUDOfFCHFR6QDy4r-33" target="gaYdnUDOfFCHFR6QDy4r-25" edge="1">
          <mxGeometry relative="1" as="geometry" />
        </mxCell>
        <mxCell id="gaYdnUDOfFCHFR6QDy4r-82" style="edgeStyle=orthogonalEdgeStyle;rounded=0;orthogonalLoop=1;jettySize=auto;html=1;" parent="1" source="gaYdnUDOfFCHFR6QDy4r-33" edge="1">
          <mxGeometry relative="1" as="geometry">
            <mxPoint x="690" y="10" as="targetPoint" />
          </mxGeometry>
        </mxCell>
        <mxCell id="gaYdnUDOfFCHFR6QDy4r-33" value="" style="rounded=0;whiteSpace=wrap;html=1;" parent="1" vertex="1">
          <mxGeometry x="630" y="-80" width="120" height="60" as="geometry" />
        </mxCell>
        <mxCell id="gaYdnUDOfFCHFR6QDy4r-35" value="&lt;div&gt;rdreq&lt;br&gt;&lt;/div&gt;&lt;div&gt;group id&lt;br&gt;&lt;/div&gt;" style="text;html=1;align=center;verticalAlign=middle;whiteSpace=wrap;rounded=0;" parent="1" vertex="1">
          <mxGeometry x="370" y="-80" width="70" height="30" as="geometry" />
        </mxCell>
        <mxCell id="gaYdnUDOfFCHFR6QDy4r-36" value="" style="rounded=0;whiteSpace=wrap;html=1;" parent="1" vertex="1">
          <mxGeometry x="50" y="-80" width="120" height="60" as="geometry" />
        </mxCell>
        <mxCell id="gaYdnUDOfFCHFR6QDy4r-42" style="edgeStyle=orthogonalEdgeStyle;rounded=0;orthogonalLoop=1;jettySize=auto;html=1;entryX=0;entryY=0.5;entryDx=0;entryDy=0;startArrow=classic;" parent="1" source="gaYdnUDOfFCHFR6QDy4r-37" target="gaYdnUDOfFCHFR6QDy4r-5" edge="1">
          <mxGeometry relative="1" as="geometry" />
        </mxCell>
        <mxCell id="gaYdnUDOfFCHFR6QDy4r-37" value="&lt;div&gt;L1i (&amp;lt;1KiB?)&lt;br&gt;&lt;/div&gt;&lt;div&gt;(indispensable)&lt;br&gt;&lt;/div&gt;" style="text;html=1;align=center;verticalAlign=middle;whiteSpace=wrap;rounded=0;" parent="1" vertex="1">
          <mxGeometry x="50" y="-65" width="120" height="30" as="geometry" />
        </mxCell>
        <mxCell id="gaYdnUDOfFCHFR6QDy4r-47" value="Writeback" style="text;html=1;align=center;verticalAlign=middle;whiteSpace=wrap;rounded=0;" parent="1" vertex="1">
          <mxGeometry x="660" y="-65" width="60" height="30" as="geometry" />
        </mxCell>
        <mxCell id="gaYdnUDOfFCHFR6QDy4r-49" style="edgeStyle=orthogonalEdgeStyle;rounded=0;orthogonalLoop=1;jettySize=auto;html=1;curved=1;endArrow=none;" parent="1" source="gaYdnUDOfFCHFR6QDy4r-48" target="gaYdnUDOfFCHFR6QDy4r-25" edge="1">
          <mxGeometry relative="1" as="geometry" />
        </mxCell>
        <mxCell id="gaYdnUDOfFCHFR6QDy4r-48" value="No debe llenarse jamás" style="text;html=1;align=center;verticalAlign=middle;whiteSpace=wrap;rounded=0;" parent="1" vertex="1">
          <mxGeometry x="430" y="-130" width="80" height="30" as="geometry" />
        </mxCell>
        <mxCell id="gaYdnUDOfFCHFR6QDy4r-53" value="&lt;div&gt;wrreq&lt;/div&gt;&lt;div&gt;group id&lt;br&gt;&lt;/div&gt;" style="text;html=1;align=center;verticalAlign=middle;whiteSpace=wrap;rounded=0;" parent="1" vertex="1">
          <mxGeometry x="570" y="-80" width="60" height="30" as="geometry" />
        </mxCell>
        <mxCell id="gaYdnUDOfFCHFR6QDy4r-64" style="edgeStyle=orthogonalEdgeStyle;rounded=0;orthogonalLoop=1;jettySize=auto;html=1;entryX=0.5;entryY=0;entryDx=0;entryDy=0;" parent="1" source="gaYdnUDOfFCHFR6QDy4r-54" target="gaYdnUDOfFCHFR6QDy4r-9" edge="1">
          <mxGeometry relative="1" as="geometry" />
        </mxCell>
        <mxCell id="gaYdnUDOfFCHFR6QDy4r-54" value="" style="rounded=0;whiteSpace=wrap;html=1;" parent="1" vertex="1">
          <mxGeometry x="250" y="42.5" width="120" height="60" as="geometry" />
        </mxCell>
        <mxCell id="gaYdnUDOfFCHFR6QDy4r-56" value="Decode &amp;amp; read regs" style="text;html=1;align=center;verticalAlign=middle;whiteSpace=wrap;rounded=0;" parent="1" vertex="1">
          <mxGeometry x="285" y="57.5" width="60" height="30" as="geometry" />
        </mxCell>
        <mxCell id="gaYdnUDOfFCHFR6QDy4r-57" value="valid group, insn" style="text;html=1;align=center;verticalAlign=middle;whiteSpace=wrap;rounded=0;" parent="1" vertex="1">
          <mxGeometry x="310" y="-20" width="100" height="30" as="geometry" />
        </mxCell>
        <mxCell id="gaYdnUDOfFCHFR6QDy4r-65" value="hit/miss 32bit" style="text;html=1;align=center;verticalAlign=middle;whiteSpace=wrap;rounded=0;" parent="1" vertex="1">
          <mxGeometry x="180" y="-80" width="60" height="30" as="geometry" />
        </mxCell>
        <mxCell id="gaYdnUDOfFCHFR6QDy4r-84" style="edgeStyle=orthogonalEdgeStyle;rounded=0;orthogonalLoop=1;jettySize=auto;html=1;entryX=1;entryY=0.5;entryDx=0;entryDy=0;" parent="1" edge="1">
          <mxGeometry relative="1" as="geometry">
            <mxPoint x="585" y="60" as="sourcePoint" />
            <mxPoint x="370" y="60" as="targetPoint" />
          </mxGeometry>
        </mxCell>
        <mxCell id="gaYdnUDOfFCHFR6QDy4r-70" value="Register file" style="swimlane;horizontal=0;whiteSpace=wrap;html=1;" parent="1" vertex="1">
          <mxGeometry x="585" y="10" width="165" height="125" as="geometry" />
        </mxCell>
        <mxCell id="gaYdnUDOfFCHFR6QDy4r-74" value="&lt;div&gt;&lt;font style=&quot;font-size: 8px;&quot;&gt;512 SGPRs&lt;br&gt;&lt;/font&gt;&lt;/div&gt;&lt;div&gt;&lt;font style=&quot;font-size: 8px;&quot;&gt;128 VGPRs&lt;/font&gt;&lt;/div&gt;&lt;div&gt;&lt;font style=&quot;font-size: 8px;&quot;&gt;Cada VGPR es de &amp;lt;lanes&amp;gt;x32 bits&lt;/font&gt;&lt;/div&gt;&lt;div&gt;&lt;font style=&quot;font-size: 8px;&quot;&gt;Cada SGPR es de 32 bits&lt;/font&gt;&lt;/div&gt;&lt;div&gt;&lt;font style=&quot;font-size: 8px;&quot;&gt;Indexados por group id&lt;br&gt;&lt;/font&gt;&lt;/div&gt;" style="text;html=1;align=center;verticalAlign=middle;resizable=0;points=[];autosize=1;strokeColor=none;fillColor=none;" parent="gaYdnUDOfFCHFR6QDy4r-70" vertex="1">
          <mxGeometry x="15" y="10" width="150" height="90" as="geometry" />
        </mxCell>
        <mxCell id="gaYdnUDOfFCHFR6QDy4r-86" style="edgeStyle=orthogonalEdgeStyle;rounded=0;orthogonalLoop=1;jettySize=auto;html=1;entryX=1;entryY=0.5;entryDx=0;entryDy=0;" parent="1" edge="1">
          <mxGeometry relative="1" as="geometry">
            <mxPoint x="585" y="80" as="sourcePoint" />
            <mxPoint x="370" y="80" as="targetPoint" />
          </mxGeometry>
        </mxCell>
        <mxCell id="gaYdnUDOfFCHFR6QDy4r-132" style="edgeStyle=orthogonalEdgeStyle;rounded=0;orthogonalLoop=1;jettySize=auto;html=1;entryX=0;entryY=0.5;entryDx=0;entryDy=0;" parent="1" source="gaYdnUDOfFCHFR6QDy4r-87" target="gaYdnUDOfFCHFR6QDy4r-129" edge="1">
          <mxGeometry relative="1" as="geometry" />
        </mxCell>
        <mxCell id="gaYdnUDOfFCHFR6QDy4r-87" value="" style="rounded=0;whiteSpace=wrap;html=1;" parent="1" vertex="1">
          <mxGeometry x="560" y="270" width="120" height="60" as="geometry" />
        </mxCell>
        <mxCell id="gaYdnUDOfFCHFR6QDy4r-88" value="&lt;div&gt;p3: Group ops&lt;/div&gt;&lt;div&gt;Voto y consenso&lt;br&gt;&lt;/div&gt;" style="text;html=1;align=center;verticalAlign=middle;whiteSpace=wrap;rounded=0;" parent="1" vertex="1">
          <mxGeometry x="570" y="285" width="100" height="30" as="geometry" />
        </mxCell>
        <mxCell id="gaYdnUDOfFCHFR6QDy4r-93" style="edgeStyle=orthogonalEdgeStyle;rounded=0;orthogonalLoop=1;jettySize=auto;html=1;entryX=0.5;entryY=0;entryDx=0;entryDy=0;" parent="1" edge="1">
          <mxGeometry relative="1" as="geometry">
            <mxPoint x="460" y="200" as="sourcePoint" />
            <mxPoint x="620" y="270" as="targetPoint" />
          </mxGeometry>
        </mxCell>
        <mxCell id="gaYdnUDOfFCHFR6QDy4r-94" value="&lt;div&gt;ready/valid&lt;/div&gt;" style="text;html=1;align=center;verticalAlign=middle;whiteSpace=wrap;rounded=0;" parent="1" vertex="1">
          <mxGeometry x="560" y="190" width="60" height="30" as="geometry" />
        </mxCell>
        <mxCell id="gaYdnUDOfFCHFR6QDy4r-124" style="edgeStyle=orthogonalEdgeStyle;rounded=0;orthogonalLoop=1;jettySize=auto;html=1;entryX=1;entryY=0.5;entryDx=0;entryDy=0;" parent="1" source="gaYdnUDOfFCHFR6QDy4r-95" target="gaYdnUDOfFCHFR6QDy4r-33" edge="1">
          <mxGeometry relative="1" as="geometry">
            <Array as="points">
              <mxPoint x="810" y="412" />
              <mxPoint x="810" y="-50" />
            </Array>
          </mxGeometry>
        </mxCell>
        <mxCell id="gaYdnUDOfFCHFR6QDy4r-95" value="Árbitro, &lt;b&gt;siempre&lt;/b&gt; prioriza p0" style="rounded=0;whiteSpace=wrap;html=1;" parent="1" vertex="1">
          <mxGeometry x="250" y="390" width="430" height="43.45" as="geometry" />
        </mxCell>
        <mxCell id="gaYdnUDOfFCHFR6QDy4r-98" style="edgeStyle=orthogonalEdgeStyle;rounded=0;orthogonalLoop=1;jettySize=auto;html=1;entryX=0.138;entryY=0.004;entryDx=0;entryDy=0;entryPerimeter=0;" parent="1" source="gaYdnUDOfFCHFR6QDy4r-1" target="gaYdnUDOfFCHFR6QDy4r-95" edge="1">
          <mxGeometry relative="1" as="geometry" />
        </mxCell>
        <mxCell id="gaYdnUDOfFCHFR6QDy4r-101" style="edgeStyle=orthogonalEdgeStyle;rounded=0;orthogonalLoop=1;jettySize=auto;html=1;entryX=0.857;entryY=-0.073;entryDx=0;entryDy=0;entryPerimeter=0;exitX=-0.08;exitY=0.387;exitDx=0;exitDy=0;exitPerimeter=0;" parent="1" source="gaYdnUDOfFCHFR6QDy4r-107" target="gaYdnUDOfFCHFR6QDy4r-95" edge="1">
          <mxGeometry relative="1" as="geometry" />
        </mxCell>
        <mxCell id="gaYdnUDOfFCHFR6QDy4r-102" style="edgeStyle=orthogonalEdgeStyle;rounded=0;orthogonalLoop=1;jettySize=auto;html=1;entryX=0.493;entryY=0.041;entryDx=0;entryDy=0;entryPerimeter=0;" parent="1" source="gaYdnUDOfFCHFR6QDy4r-7" target="gaYdnUDOfFCHFR6QDy4r-95" edge="1">
          <mxGeometry relative="1" as="geometry" />
        </mxCell>
        <mxCell id="gaYdnUDOfFCHFR6QDy4r-103" value="" style="rounded=0;whiteSpace=wrap;html=1;" parent="1" vertex="1">
          <mxGeometry x="60" y="381.73" width="120" height="60" as="geometry" />
        </mxCell>
        <mxCell id="gaYdnUDOfFCHFR6QDy4r-106" style="edgeStyle=orthogonalEdgeStyle;rounded=0;orthogonalLoop=1;jettySize=auto;html=1;entryX=0;entryY=0.5;entryDx=0;entryDy=0;" parent="1" source="gaYdnUDOfFCHFR6QDy4r-104" target="gaYdnUDOfFCHFR6QDy4r-95" edge="1">
          <mxGeometry relative="1" as="geometry" />
        </mxCell>
        <mxCell id="gaYdnUDOfFCHFR6QDy4r-104" value="&lt;div&gt;Mem response&lt;br&gt;&lt;/div&gt;" style="text;html=1;align=center;verticalAlign=middle;whiteSpace=wrap;rounded=0;" parent="1" vertex="1">
          <mxGeometry x="60" y="396.73" width="120" height="30" as="geometry" />
        </mxCell>
        <mxCell id="gaYdnUDOfFCHFR6QDy4r-107" value="&lt;div&gt;ready/valid&lt;/div&gt;" style="text;html=1;align=center;verticalAlign=middle;whiteSpace=wrap;rounded=0;" parent="1" vertex="1">
          <mxGeometry x="620" y="320" width="60" height="30" as="geometry" />
        </mxCell>
        <mxCell id="gaYdnUDOfFCHFR6QDy4r-108" value="&lt;div&gt;ready/valid&lt;/div&gt;" style="text;html=1;align=center;verticalAlign=middle;whiteSpace=wrap;rounded=0;" parent="1" vertex="1">
          <mxGeometry x="460" y="320" width="60" height="30" as="geometry" />
        </mxCell>
        <mxCell id="gaYdnUDOfFCHFR6QDy4r-109" value="&lt;div&gt;ready/valid&lt;/div&gt;" style="text;html=1;align=center;verticalAlign=middle;whiteSpace=wrap;rounded=0;" parent="1" vertex="1">
          <mxGeometry x="190" y="381.73" width="60" height="30" as="geometry" />
        </mxCell>
        <mxCell id="gaYdnUDOfFCHFR6QDy4r-113" value="AXI Ax, W 32bits" style="text;html=1;align=center;verticalAlign=middle;resizable=0;points=[];autosize=1;strokeColor=none;fillColor=none;" parent="1" vertex="1">
          <mxGeometry x="-65" y="268" width="110" height="30" as="geometry" />
        </mxCell>
        <mxCell id="gaYdnUDOfFCHFR6QDy4r-114" value="AXI R, B 32bits" style="text;html=1;align=center;verticalAlign=middle;resizable=0;points=[];autosize=1;strokeColor=none;fillColor=none;" parent="1" vertex="1">
          <mxGeometry x="-55" y="381.73" width="100" height="30" as="geometry" />
        </mxCell>
        <mxCell id="gaYdnUDOfFCHFR6QDy4r-118" value="" style="edgeStyle=orthogonalEdgeStyle;rounded=0;orthogonalLoop=1;jettySize=auto;html=1;" parent="1" edge="1">
          <mxGeometry relative="1" as="geometry">
            <mxPoint x="60" y="411.73" as="targetPoint" />
            <mxPoint x="-80" y="411.73" as="sourcePoint" />
          </mxGeometry>
        </mxCell>
        <mxCell id="gaYdnUDOfFCHFR6QDy4r-119" style="edgeStyle=orthogonalEdgeStyle;rounded=0;orthogonalLoop=1;jettySize=auto;html=1;exitX=-0.03;exitY=0.159;exitDx=0;exitDy=0;exitPerimeter=0;" parent="1" edge="1">
          <mxGeometry relative="1" as="geometry">
            <mxPoint x="-90" y="-60" as="targetPoint" />
            <mxPoint x="49.999999999999865" y="-60.230000000000246" as="sourcePoint" />
          </mxGeometry>
        </mxCell>
        <mxCell id="gaYdnUDOfFCHFR6QDy4r-120" style="edgeStyle=orthogonalEdgeStyle;rounded=0;orthogonalLoop=1;jettySize=auto;html=1;" parent="1" edge="1">
          <mxGeometry relative="1" as="geometry">
            <mxPoint x="51.5" y="-40" as="targetPoint" />
            <mxPoint x="-90" y="-40" as="sourcePoint" />
          </mxGeometry>
        </mxCell>
        <mxCell id="gaYdnUDOfFCHFR6QDy4r-122" value="AXI-Lite 32bits" style="text;html=1;align=center;verticalAlign=middle;resizable=0;points=[];autosize=1;strokeColor=none;fillColor=none;" parent="1" vertex="1">
          <mxGeometry x="-55" y="-95" width="100" height="30" as="geometry" />
        </mxCell>
        <mxCell id="gaYdnUDOfFCHFR6QDy4r-123" value="" style="shape=link;html=1;rounded=0;" parent="1" edge="1">
          <mxGeometry width="100" relative="1" as="geometry">
            <mxPoint x="-80" y="426.73" as="sourcePoint" />
            <mxPoint x="-90" y="-80" as="targetPoint" />
          </mxGeometry>
        </mxCell>
        <mxCell id="gaYdnUDOfFCHFR6QDy4r-125" value="&lt;div&gt;valid&lt;/div&gt;" style="text;html=1;align=center;verticalAlign=middle;whiteSpace=wrap;rounded=0;" parent="1" vertex="1">
          <mxGeometry x="300" y="320" width="60" height="30" as="geometry" />
        </mxCell>
        <mxCell id="gaYdnUDOfFCHFR6QDy4r-137" style="edgeStyle=orthogonalEdgeStyle;rounded=0;orthogonalLoop=1;jettySize=auto;html=1;endArrow=none;" parent="1" edge="1">
          <mxGeometry relative="1" as="geometry">
            <mxPoint x="310" y="-160" as="targetPoint" />
            <mxPoint x="930" y="269.9999999999998" as="sourcePoint" />
            <Array as="points">
              <mxPoint x="930" y="-160" />
            </Array>
          </mxGeometry>
        </mxCell>
        <mxCell id="gaYdnUDOfFCHFR6QDy4r-129" value="&lt;div&gt;PC table&lt;/div&gt;" style="rounded=1;whiteSpace=wrap;html=1;" parent="1" vertex="1">
          <mxGeometry x="860" y="270" width="140" height="60" as="geometry" />
        </mxCell>
        <mxCell id="gaYdnUDOfFCHFR6QDy4r-151" style="edgeStyle=orthogonalEdgeStyle;rounded=0;orthogonalLoop=1;jettySize=auto;html=1;" parent="1" target="gaYdnUDOfFCHFR6QDy4r-141" edge="1">
          <mxGeometry relative="1" as="geometry">
            <mxPoint x="1090" y="350" as="sourcePoint" />
          </mxGeometry>
        </mxCell>
        <mxCell id="gaYdnUDOfFCHFR6QDy4r-141" value="&lt;div&gt;Lane mask table&lt;br&gt;&lt;/div&gt;" style="rounded=1;whiteSpace=wrap;html=1;" parent="1" vertex="1">
          <mxGeometry x="1020" y="270" width="140" height="60" as="geometry" />
        </mxCell>
        <mxCell id="gaYdnUDOfFCHFR6QDy4r-143" value="" style="endArrow=classic;html=1;rounded=0;" parent="1" edge="1">
          <mxGeometry width="50" height="50" relative="1" as="geometry">
            <mxPoint x="750" y="320" as="sourcePoint" />
            <mxPoint x="750" y="500" as="targetPoint" />
          </mxGeometry>
        </mxCell>
        <mxCell id="gaYdnUDOfFCHFR6QDy4r-144" value="" style="endArrow=none;html=1;rounded=0;exitX=1;exitY=0;exitDx=0;exitDy=0;exitPerimeter=0;" parent="1" source="gaYdnUDOfFCHFR6QDy4r-107" edge="1">
          <mxGeometry width="50" height="50" relative="1" as="geometry">
            <mxPoint x="860" y="420" as="sourcePoint" />
            <mxPoint x="750" y="320" as="targetPoint" />
          </mxGeometry>
        </mxCell>
        <mxCell id="gaYdnUDOfFCHFR6QDy4r-145" value="Memoria" style="text;html=1;align=center;verticalAlign=middle;whiteSpace=wrap;rounded=0;" parent="1" vertex="1">
          <mxGeometry x="-170" y="72.5" width="60" height="30" as="geometry" />
        </mxCell>
        <mxCell id="gaYdnUDOfFCHFR6QDy4r-147" value="" style="endArrow=none;html=1;rounded=0;" parent="1" edge="1">
          <mxGeometry width="50" height="50" relative="1" as="geometry">
            <mxPoint x="780" y="350" as="sourcePoint" />
            <mxPoint x="780" y="300" as="targetPoint" />
          </mxGeometry>
        </mxCell>
        <mxCell id="gaYdnUDOfFCHFR6QDy4r-148" value="" style="endArrow=none;html=1;rounded=0;" parent="1" edge="1">
          <mxGeometry width="50" height="50" relative="1" as="geometry">
            <mxPoint x="1090" y="350" as="sourcePoint" />
            <mxPoint x="780" y="350" as="targetPoint" />
          </mxGeometry>
        </mxCell>
        <mxCell id="gaYdnUDOfFCHFR6QDy4r-152" style="edgeStyle=orthogonalEdgeStyle;rounded=0;orthogonalLoop=1;jettySize=auto;html=1;entryX=1;entryY=0.833;entryDx=0;entryDy=0;entryPerimeter=0;exitX=0.455;exitY=0;exitDx=0;exitDy=0;exitPerimeter=0;" parent="1" source="gaYdnUDOfFCHFR6QDy4r-141" target="gaYdnUDOfFCHFR6QDy4r-33" edge="1">
          <mxGeometry relative="1" as="geometry" />
        </mxCell>
        <mxCell id="gaYdnUDOfFCHFR6QDy4r-153" value="" style="shape=link;html=1;rounded=0;" parent="1" edge="1">
          <mxGeometry width="100" relative="1" as="geometry">
            <mxPoint x="560" y="500" as="sourcePoint" />
            <mxPoint x="1140" y="500" as="targetPoint" />
          </mxGeometry>
        </mxCell>
        <mxCell id="gaYdnUDOfFCHFR6QDy4r-154" value="Scheduler" style="text;html=1;align=center;verticalAlign=middle;whiteSpace=wrap;rounded=0;" parent="1" vertex="1">
          <mxGeometry x="850" y="500" width="60" height="30" as="geometry" />
        </mxCell>
        <mxCell id="gaYdnUDOfFCHFR6QDy4r-155" value="irq que indica terminación" style="text;html=1;align=center;verticalAlign=middle;whiteSpace=wrap;rounded=0;" parent="1" vertex="1">
          <mxGeometry x="750" y="441.73" width="140" height="30" as="geometry" />
        </mxCell>
        <mxCell id="gaYdnUDOfFCHFR6QDy4r-157" value="" style="endArrow=classic;startArrow=classic;html=1;rounded=0;entryX=0.5;entryY=1;entryDx=0;entryDy=0;" parent="1" target="gaYdnUDOfFCHFR6QDy4r-129" edge="1">
          <mxGeometry width="50" height="50" relative="1" as="geometry">
            <mxPoint x="930" y="500" as="sourcePoint" />
            <mxPoint x="980" y="450" as="targetPoint" />
          </mxGeometry>
        </mxCell>
        <mxCell id="gaYdnUDOfFCHFR6QDy4r-164" value="" style="endArrow=classic;html=1;rounded=0;entryX=0.683;entryY=1;entryDx=0;entryDy=0;entryPerimeter=0;" parent="1" edge="1">
          <mxGeometry width="50" height="50" relative="1" as="geometry">
            <mxPoint x="1120.38" y="420" as="sourcePoint" />
            <mxPoint x="1120" y="330" as="targetPoint" />
          </mxGeometry>
        </mxCell>
        <mxCell id="gaYdnUDOfFCHFR6QDy4r-165" value="" style="endArrow=none;html=1;rounded=0;" parent="1" edge="1">
          <mxGeometry width="50" height="50" relative="1" as="geometry">
            <mxPoint x="930" y="420" as="sourcePoint" />
            <mxPoint x="1120" y="420" as="targetPoint" />
          </mxGeometry>
        </mxCell>
        <mxCell id="gaYdnUDOfFCHFR6QDy4r-166" value="&lt;div&gt;AXI-Lite 32bits&lt;br&gt;&lt;/div&gt;&lt;div&gt;Interfaz de delegación&lt;br&gt;&lt;/div&gt;" style="text;html=1;align=center;verticalAlign=middle;whiteSpace=wrap;rounded=0;" parent="1" vertex="1">
          <mxGeometry x="940" y="420" width="120" height="30" as="geometry" />
        </mxCell>
        <mxCell id="gaYdnUDOfFCHFR6QDy4r-170" value="" style="endArrow=classic;html=1;rounded=0;entryX=0.766;entryY=-0.04;entryDx=0;entryDy=0;entryPerimeter=0;" parent="1" edge="1">
          <mxGeometry width="50" height="50" relative="1" as="geometry">
            <mxPoint x="530.08" y="-130" as="sourcePoint" />
            <mxPoint x="530.0000000000001" y="-82.40000000000009" as="targetPoint" />
          </mxGeometry>
        </mxCell>
        <mxCell id="gaYdnUDOfFCHFR6QDy4r-171" value="" style="endArrow=none;html=1;rounded=0;" parent="1" edge="1">
          <mxGeometry width="50" height="50" relative="1" as="geometry">
            <mxPoint x="530" y="-130" as="sourcePoint" />
            <mxPoint x="830" y="-130" as="targetPoint" />
          </mxGeometry>
        </mxCell>
        <mxCell id="gaYdnUDOfFCHFR6QDy4r-172" value="" style="endArrow=none;html=1;rounded=0;" parent="1" edge="1">
          <mxGeometry width="50" height="50" relative="1" as="geometry">
            <mxPoint x="830" y="420" as="sourcePoint" />
            <mxPoint x="830" y="-130" as="targetPoint" />
          </mxGeometry>
        </mxCell>
        <mxCell id="gaYdnUDOfFCHFR6QDy4r-173" value="" style="endArrow=none;html=1;rounded=0;" parent="1" edge="1">
          <mxGeometry width="50" height="50" relative="1" as="geometry">
            <mxPoint x="830" y="420" as="sourcePoint" />
            <mxPoint x="930" y="420" as="targetPoint" />
          </mxGeometry>
        </mxCell>
      </root>
    </mxGraphModel>
  </diagram>
</mxfile>
